<svg xmlns="http://www.w3.org/2000/svg" xmlns:xlink="http://www.w3.org/1999/xlink" width="320" zoomAndPan="magnify" viewBox="0 0 240 239.999995" height="320" preserveAspectRatio="xMidYMid meet" version="1.0"><defs><clipPath id="e88ef2f5cd"><path d="M 8.878906 78.472656 L 21.730469 78.472656 L 21.730469 126.488281 L 8.878906 126.488281 Z M 8.878906 78.472656 " clip-rule="nonzero"/></clipPath><clipPath id="8fc9bba9da"><path d="M 17.023438 80.851562 C 12.449219 113.25 11.476562 113.699219 10.800781 113.550781 C 10.199219 113.476562 9.523438 112.875 9.226562 111.898438 C 8.398438 109.425781 9.75 99.523438 11.023438 96.375 C 11.699219 94.726562 12.601562 93.375 13.5 93.074219 C 14.324219 92.851562 15.375 93.226562 16.125 93.898438 C 17.023438 94.800781 17.550781 96.75 18 98.625 C 18.601562 100.949219 19.050781 103.574219 18.824219 106.875 C 18.449219 111.75 15.824219 122.101562 14.175781 124.800781 C 13.574219 125.773438 12.898438 126.449219 12.226562 126.449219 C 11.625 126.449219 10.648438 125.925781 10.199219 124.875 C 8.699219 121.050781 11.851562 98.625 13.800781 93.824219 C 14.476562 92.175781 15.148438 90.976562 16.050781 90.824219 C 17.023438 90.675781 18.75 92.324219 19.574219 93.375 C 20.324219 94.351562 20.625 95.175781 21 96.601562 C 21.601562 99.523438 21.898438 105.976562 21.523438 110.101562 C 21.226562 113.699219 20.476562 118.574219 19.273438 120.074219 C 18.675781 120.75 17.851562 121.050781 17.25 120.898438 C 16.648438 120.824219 16.050781 120.074219 15.75 119.324219 C 15.300781 118.351562 15.300781 116.175781 15.523438 115.125 C 15.675781 114.375 15.824219 113.699219 16.351562 113.398438 C 16.875 113.101562 18.226562 113.101562 18.75 113.550781 C 19.273438 113.925781 19.5 115.273438 19.351562 115.875 C 19.125 116.398438 18.375 117 17.851562 117 C 17.25 117.074219 15.976562 116.476562 15.675781 115.949219 C 15.449219 115.351562 15.75 114 16.199219 113.550781 C 16.574219 113.175781 17.476562 113.023438 18 113.101562 C 18.523438 113.25 19.050781 113.773438 19.351562 114.375 C 19.875 115.5 20.023438 118.574219 19.425781 119.625 C 19.050781 120.375 17.925781 120.976562 17.25 120.898438 C 16.648438 120.824219 15.976562 120.226562 15.75 119.324219 C 15.226562 117.601562 17.550781 113.550781 17.851562 109.949219 C 18.300781 105.375 17.851562 94.125 17.476562 94.125 C 16.875 94.050781 15.976562 121.574219 14.023438 125.101562 C 13.5 126.074219 12.898438 126.449219 12.226562 126.449219 C 11.625 126.449219 10.574219 125.851562 10.199219 124.875 C 9.375 122.175781 14.398438 112.125 15 107.023438 C 15.449219 103.273438 15 97.050781 14.773438 97.050781 C 14.476562 96.976562 14.625 109.949219 13.125 112.199219 C 12.523438 113.175781 11.476562 113.699219 10.800781 113.550781 C 10.199219 113.476562 9.601562 112.949219 9.226562 111.898438 C 7.875 108.074219 11.476562 84.226562 12.898438 80.398438 C 13.199219 79.425781 13.5 79.050781 13.949219 78.75 C 14.398438 78.523438 15 78.375 15.449219 78.601562 C 16.050781 78.824219 17.023438 80.851562 17.023438 80.851562 " clip-rule="nonzero"/></clipPath><clipPath id="f1e970a40c"><path d="M 0.878906 0.472656 L 13.730469 0.472656 L 13.730469 48.480469 L 0.878906 48.480469 Z M 0.878906 0.472656 " clip-rule="nonzero"/></clipPath><clipPath id="4589cd6ccf"><path d="M 9.023438 2.851562 C 4.449219 35.25 3.476562 35.699219 2.800781 35.550781 C 2.199219 35.476562 1.523438 34.875 1.226562 33.898438 C 0.398438 31.425781 1.75 21.523438 3.023438 18.375 C 3.699219 16.726562 4.601562 15.375 5.5 15.074219 C 6.324219 14.851562 7.375 15.226562 8.125 15.898438 C 9.023438 16.800781 9.550781 18.75 10 20.625 C 10.601562 22.949219 11.050781 25.574219 10.824219 28.875 C 10.449219 33.75 7.824219 44.101562 6.175781 46.800781 C 5.574219 47.773438 4.898438 48.449219 4.226562 48.449219 C 3.625 48.449219 2.648438 47.925781 2.199219 46.875 C 0.699219 43.050781 3.851562 20.625 5.800781 15.824219 C 6.476562 14.175781 7.148438 12.976562 8.050781 12.824219 C 9.023438 12.675781 10.75 14.324219 11.574219 15.375 C 12.324219 16.351562 12.625 17.175781 13 18.601562 C 13.601562 21.523438 13.898438 27.976562 13.523438 32.101562 C 13.226562 35.699219 12.476562 40.574219 11.273438 42.074219 C 10.675781 42.75 9.851562 43.050781 9.25 42.898438 C 8.648438 42.824219 8.050781 42.074219 7.75 41.324219 C 7.300781 40.351562 7.300781 38.175781 7.523438 37.125 C 7.675781 36.375 7.824219 35.699219 8.351562 35.398438 C 8.875 35.101562 10.226562 35.101562 10.75 35.550781 C 11.273438 35.925781 11.5 37.273438 11.351562 37.875 C 11.125 38.398438 10.375 39 9.851562 39 C 9.25 39.074219 7.976562 38.476562 7.675781 37.949219 C 7.449219 37.351562 7.75 36 8.199219 35.550781 C 8.574219 35.175781 9.476562 35.023438 10 35.101562 C 10.523438 35.25 11.050781 35.773438 11.351562 36.375 C 11.875 37.5 12.023438 40.574219 11.425781 41.625 C 11.050781 42.375 9.925781 42.976562 9.25 42.898438 C 8.648438 42.824219 7.976562 42.226562 7.75 41.324219 C 7.226562 39.601562 9.550781 35.550781 9.851562 31.949219 C 10.300781 27.375 9.851562 16.125 9.476562 16.125 C 8.875 16.050781 7.976562 43.574219 6.023438 47.101562 C 5.5 48.074219 4.898438 48.449219 4.226562 48.449219 C 3.625 48.449219 2.574219 47.851562 2.199219 46.875 C 1.375 44.175781 6.398438 34.125 7 29.023438 C 7.449219 25.273438 7 19.050781 6.773438 19.050781 C 6.476562 18.976562 6.625 31.949219 5.125 34.199219 C 4.523438 35.175781 3.476562 35.699219 2.800781 35.550781 C 2.199219 35.476562 1.601562 34.949219 1.226562 33.898438 C -0.125 30.074219 3.476562 6.226562 4.898438 2.398438 C 5.199219 1.425781 5.5 1.050781 5.949219 0.75 C 6.398438 0.523438 7 0.375 7.449219 0.601562 C 8.050781 0.824219 9.023438 2.851562 9.023438 2.851562 " clip-rule="nonzero"/></clipPath><clipPath id="f5cdef0449"><rect x="0" width="14" y="0" height="49"/></clipPath></defs><path fill="#ff0000" d="M 239.816406 120.375 C 239.867188 186.328125 186.246094 239.949219 120.203125 239.976562 C 53.996094 240.003906 0.0429688 186.289062 0.046875 120.34375 C 0.046875 53.703125 53.304688 -0.0234375 119.308594 0.0273438 C 186.558594 0.0742188 239.765625 53.210938 239.816406 120.375 Z M 126.535156 24.890625 C 104.890625 24.859375 90.425781 27.980469 76.9375 34.90625 C 58.019531 44.617188 43.558594 58.820312 34.273438 78.128906 C 32.886719 81.007812 32.476562 82.679688 36.511719 83.304688 C 41.09375 84.011719 44.660156 86.652344 46.484375 91.027344 C 47.585938 93.664062 49.484375 94.410156 52.046875 94.699219 C 57.46875 95.304688 62.253906 93.519531 66.957031 91.175781 C 82.039062 83.664062 97.976562 79.414062 114.824219 78.574219 C 135.9375 77.523438 155.734375 82.460938 174.527344 91.785156 C 179.238281 94.125 183.957031 95.207031 189.15625 94.007812 C 190.679688 93.65625 191.875 93.246094 192.480469 91.621094 C 194.390625 86.507812 198.457031 83.851562 203.519531 82.851562 C 206.640625 82.234375 207.070312 81.414062 205.570312 78.535156 C 187.527344 43.917969 158.9375 26.222656 126.535156 24.890625 Z M 25.546875 122.484375 C 24.785156 123.621094 25.171875 124.835938 25.238281 125.996094 C 26.304688 144.722656 32.542969 161.601562 43.695312 176.617188 C 56.335938 193.636719 72.96875 205.019531 93.261719 211.105469 C 95.613281 211.8125 97.457031 212.542969 97.570312 208.703125 C 97.675781 205.050781 100.183594 202.488281 102.9375 200.195312 C 109.25 194.941406 110.003906 191.273438 106.410156 183.851562 C 102.257812 175.265625 96.382812 168.132812 88.011719 163.390625 C 84.25 161.257812 81.59375 158.402344 79.738281 154.546875 C 77.1875 149.257812 73.996094 144.351562 70.261719 139.804688 C 66.167969 134.820312 61.179688 131.175781 54.757812 129.941406 C 51.160156 129.25 48.316406 127.59375 46.109375 124.726562 C 43.9375 121.902344 41.21875 121.601562 38.378906 123.441406 C 35.617188 125.234375 32.914062 125.078125 30.015625 123.992188 C 28.550781 123.445312 27.242188 122.375 25.546875 122.484375 Z M 214.496094 121.785156 C 209.140625 125.5 204.132812 125.890625 198.890625 122.574219 C 197.175781 121.488281 195.292969 122.394531 194.132812 124.25 C 192.082031 127.519531 189.019531 129.167969 185.269531 129.71875 C 180.183594 130.464844 176.085938 133.042969 172.535156 136.644531 C 167.617188 141.628906 163.835938 147.417969 160.933594 153.730469 C 159.066406 157.785156 156.324219 160.652344 152.457031 162.878906 C 143.371094 168.113281 137.097656 175.910156 133.257812 185.613281 C 130.871094 191.644531 131.796875 195.203125 136.808594 199.367188 C 140.019531 202.035156 142.460938 205.082031 142.738281 209.339844 C 142.90625 211.953125 144.015625 211.957031 146.085938 211.390625 C 150.078125 210.292969 153.914062 208.816406 157.722656 207.234375 C 194.230469 192.070312 214.382812 155.503906 214.496094 121.785156 Z M 145.21875 107.5625 C 131.34375 107.773438 118.21875 107.0625 105.09375 108.046875 C 103.183594 108.191406 101.417969 108.917969 99.945312 110.039062 C 92.65625 115.582031 86.730469 122.542969 79.523438 129.117188 C 86.550781 130.105469 92.347656 130.019531 96.738281 124.394531 C 98.359375 122.320312 100.53125 120.679688 102.429688 118.820312 C 104.941406 116.359375 107.90625 115.3125 111.453125 115.390625 C 117.699219 115.535156 124.015625 114.882812 130.183594 115.601562 C 137.003906 116.398438 141.148438 113.230469 145.21875 107.5625 Z M 135.734375 117.148438 C 126.601562 117.148438 118.007812 117.101562 109.414062 117.203125 C 108.160156 117.21875 106.757812 117.714844 105.695312 118.410156 C 101.378906 121.222656 98.226562 125.269531 94.148438 128.964844 C 102.019531 130.1875 102.820312 130.03125 108.5625 126.082031 C 109.832031 125.210938 111.203125 124.921875 112.703125 124.949219 C 115.621094 125 118.609375 124.644531 121.453125 125.128906 C 128.148438 126.265625 132.183594 122.875 135.734375 117.148438 Z M 127.285156 127.984375 C 127.503906 128.425781 127.71875 128.871094 127.9375 129.316406 C 129.980469 129.316406 132.039062 129.164062 134.066406 129.347656 C 138.160156 129.722656 141.382812 128.601562 144.21875 125.371094 C 149.199219 119.691406 154.570312 114.347656 159.777344 108.871094 C 160.183594 108.445312 160.339844 108.007812 159.976562 107.488281 C 157.195312 107.488281 154.414062 107.472656 151.632812 107.496094 C 150.070312 107.507812 148.609375 107.410156 147.25 108.75 C 140.667969 115.234375 133.953125 121.585938 127.285156 127.984375 Z M 127.285156 127.984375 " fill-opacity="1" fill-rule="nonzero"/><g clip-path="url(#e88ef2f5cd)"><g clip-path="url(#8fc9bba9da)"><g transform="matrix(1, 0, 0, 1, 8, 78)"><g clip-path="url(#f5cdef0449)"><g clip-path="url(#f1e970a40c)"><g clip-path="url(#4589cd6ccf)"><rect x="-60.8" width="345.6" fill="#ff0000" height="345.599992" y="-130.799999" fill-opacity="1"/></g></g></g></g></g></g></svg>